<svg version="1.1" id="WPC_square" xmlns="http://www.w3.org/2000/svg" xmlns:xlink="http://www.w3.org/1999/xlink" x="0px" y="0px" viewBox="0 0 512 512" xml:space="preserve">
<style type="text/css">
	.wpc-square-icon__bg {fill:#1B1B1B;}
	.wpc-square-icon__letters--white {fill:#FFFFFF;}
	.wpc-square-icon__letters--faded {opacity:0.7;}
</style>
<rect id="WPC_bg" class="wpc-square-icon__bg" width="512" height="512"/>
<path id="Letter_W" class="wpc-square-icon__letters--white wpc-square-icon__letters--faded" d="M211,183.7l-34.8,144.7H158l-31.6-112.2L97.2,328.3H78.5L41.8,183.7h18.8l29,117.2l30.7-117.2
	H135l33.1,117.2l27-117.2H211z"/>
<path id="Letter_P" class="wpc-square-icon__letters--white wpc-square-icon__letters--faded" d="M247.3,328.3h-18.1V183.7h51.3c16,0,27.9,4.4,35.5,13.1c7.6,8.7,11.4,18.7,11.4,29.8
	c0,12.4-4.2,22.7-12.5,30.8c-8.3,8.1-19.2,12.2-32.6,12.2h-35.1v58.7H247.3z M247.3,254.6h33.3c8.5,0,15.4-2.6,20.7-7.7
	c5.2-5.1,7.8-11.9,7.8-20.3c0-7.2-2.3-13.6-7-19.3s-11.4-8.5-20.2-8.5h-34.5L247.3,254.6L247.3,254.6z"/>
<path id="Letter_C" class="wpc-square-icon__letters--white" d="M427.9,273.1l40.6,2.4c-1.9,17.7-8.5,31.3-19.7,40.8s-25,14.2-41.3,14.2
	c-19.6,0-35.5-6.5-47.6-19.5s-18.1-30.9-18.1-53.8c0-22.7,5.7-41,17.2-54.9c11.4-13.9,27.4-20.9,47.9-20.9
	c19.1,0,33.9,5.3,44.1,15.9c10.3,10.6,16.1,24.7,17.4,42.2l-41.4,2.2c0-9.7-1.9-16.7-5.6-21s-8.1-6.5-13.1-6.5
	c-14,0-21,14.1-21,42.2c0,15.8,1.8,26.5,5.5,32.1c3.6,5.7,8.7,8.5,15.3,8.5C419.9,297.1,426.5,289.1,427.9,273.1z"/>
</svg>
