<?xml version="1.0" encoding="utf-8"?>
<!-- Generator: Adobe Illustrator 23.1.1, SVG Export Plug-In . SVG Version: 6.00 Build 0)  -->
<svg version="1.1" id="Layer_1" xmlns="http://www.w3.org/2000/svg" xmlns:xlink="http://www.w3.org/1999/xlink" x="0px" y="0px"
	 viewBox="0 0 512 512" style="enable-background:new 0 0 512 512;" xml:space="preserve">
<style type="text/css">
	.st0{display:none;}
	.st1{display:inline;}
	.st2{display:inline;fill:#FFFFFF;}
	.st3{display:inline;fill:#1B1B1B;}
	.st4{fill:#1B1B1B;}
	.st5{opacity:0.7;fill:#FFFFFF;}
	.st6{fill:#FFFFFF;}
</style>
<g id="Circle" class="st0">
	<circle class="st1" cx="34" cy="-132" r="30"/>
	<path class="st2" d="M39.3-128l9.5,0.6c-0.4,4.2-2,7.4-4.6,9.6c-2.6,2.2-5.9,3.3-9.7,3.3c-4.6,0-8.3-1.5-11.2-4.6
		c-2.8-3.1-4.3-7.3-4.3-12.6c0-5.3,1.3-9.6,4-12.9c2.7-3.3,6.4-4.9,11.2-4.9c4.5,0,7.9,1.2,10.4,3.7c2.4,2.5,3.8,5.8,4.1,9.9
		l-9.7,0.5c0-2.3-0.4-3.9-1.3-4.9c-0.9-1-1.9-1.5-3.1-1.5c-3.3,0-4.9,3.3-4.9,9.9c0,3.7,0.4,6.2,1.3,7.5c0.9,1.3,2.1,2,3.6,2
		C37.5-122.4,39-124.2,39.3-128z"/>
</g>
<g id="Square" class="st0">
	<rect x="-438" y="0" class="st3" width="300" height="300"/>
	<path class="st2" d="M-259.8,171.2l50.4,3c-2.4,22-10.5,38.9-24.4,50.6c-13.9,11.7-31,17.6-51.2,17.6c-24.4,0-44-8.1-59-24.2
		c-15-16.1-22.5-38.4-22.5-66.8c0-28.1,7.1-50.8,21.3-68.1c14.2-17.3,34-25.9,59.4-25.9c23.8,0,42,6.6,54.8,19.7
		c12.8,13.1,20,30.6,21.6,52.3l-51.4,2.8c0-12-2.3-20.7-6.9-26c-4.6-5.3-10-8-16.2-8c-17.4,0-26,17.4-26,52.3
		c0,19.5,2.3,32.8,6.8,39.8c4.5,7,10.8,10.5,19,10.5C-269.7,201-261.6,191-259.8,171.2z"/>
</g>
<g>
	<rect x="0" y="0" class="st4" width="512" height="512"/>
	<path class="st5" d="M211,183.7l-34.8,144.7H158l-31.6-112.2L97.2,328.3H78.5L41.8,183.7h18.8l29,117.2l30.7-117.2H135l33.1,117.2
		l27-117.2H211z"/>
	<path class="st5" d="M247.3,328.3h-18.1V183.7h51.3c16,0,27.9,4.4,35.5,13.1c7.6,8.7,11.4,18.7,11.4,29.8
		c0,12.4-4.2,22.7-12.5,30.8c-8.3,8.1-19.2,12.2-32.6,12.2h-35.1V328.3z M247.3,254.6h33.3c8.5,0,15.4-2.6,20.7-7.7
		c5.2-5.1,7.8-11.9,7.8-20.3c0-7.2-2.3-13.6-7-19.3c-4.7-5.7-11.4-8.5-20.2-8.5h-34.5V254.6z"/>
	<path class="st6" d="M427.9,273.1l40.6,2.4c-1.9,17.7-8.5,31.3-19.7,40.8c-11.2,9.5-25,14.2-41.3,14.2c-19.6,0-35.5-6.5-47.6-19.5
		c-12.1-13-18.1-30.9-18.1-53.8c0-22.7,5.7-41,17.2-54.9c11.4-13.9,27.4-20.9,47.9-20.9c19.1,0,33.9,5.3,44.1,15.9
		c10.3,10.6,16.1,24.7,17.4,42.2l-41.4,2.2c0-9.7-1.9-16.7-5.6-21c-3.7-4.3-8.1-6.5-13.1-6.5c-14,0-21,14.1-21,42.2
		c0,15.8,1.8,26.5,5.5,32.1c3.6,5.7,8.7,8.5,15.3,8.5C419.9,297.1,426.5,289.1,427.9,273.1z"/>
</g>
</svg>
