<?xml version="1.0" encoding="UTF-8"?>
<svg version="1.1" id="Layer_1" xmlns="http://www.w3.org/2000/svg" xmlns:xlink="http://www.w3.org/1999/xlink" x="0px" y="0px" viewBox="0 0 300 76" style="enable-background:new 0 0 300 76;" xml:space="preserve">
<style type="text/css">
	.slack-color--pink{fill:#E01E5A;}
	.slack-color--aqua{fill:#36C5F0;}
	.slack-color--green{fill:#2EB67D;}
	.slack-color--gold{fill:#ECB22E;}
</style>
<g>
	<g>
		<path d="M96,59.8l3.7-8.7c4,3,9.4,4.6,14.7,4.6c3.9,0,6.4-1.5,6.4-3.8c-0.1-6.4-23.5-1.4-23.7-17.5c-0.1-8.2,7.2-14.5,17.5-14.5    c6.1,0,12.2,1.5,16.6,5l-3.5,8.9c-4-2.5-8.9-4.4-13.7-4.4c-3.2,0-5.3,1.5-5.3,3.4c0.1,6.3,23.7,2.8,23.9,18.2    c0,8.4-7.1,14.2-17.2,14.2C108,65.4,101.2,63.6,96,59.8"/>
		<path d="M239.7,48c-1.9,3.3-5.4,5.5-9.4,5.5c-6,0-10.8-4.8-10.8-10.8s4.8-10.8,10.8-10.8c4,0,7.6,2.2,9.4,5.5l10.3-5.7    c-3.9-6.9-11.3-11.6-19.8-11.6c-12.5,0-22.7,10.2-22.7,22.7s10.2,22.7,22.7,22.7c8.5,0,15.9-4.7,19.8-11.6L239.7,48z"/>
		<rect x="137.9" y="1.1" width="12.9" height="63.4"/>
		<polygon points="255.2,1.1 255.2,64.5 268.1,64.5 268.1,45.5 283.4,64.5 300,64.5 280.5,41.9 298.5,20.9 282.7,20.9 268.1,38.4     268.1,1.1   "/>
		<path d="M189.2,48.1c-1.9,3.1-5.7,5.4-10.1,5.4c-6,0-10.8-4.8-10.8-10.8s4.8-10.8,10.8-10.8c4.4,0,8.2,2.4,10.1,5.6V48.1z     M189.2,20.9V26c-2.1-3.6-7.4-6.1-12.9-6.1C165,20,156,30,156,42.6s8.9,22.8,20.3,22.8c5.5,0,10.8-2.5,12.9-6.1v5.1h12.9V20.9    C202.2,20.9,189.2,20.9,189.2,20.9z"/>
	</g>
	<g>
		<g>
			<path class="slack-color--pink" d="M16,48c0,4.4-3.6,8-8,8s-8-3.6-8-8s3.6-8,8-8h8V48z"/>
			<path class="slack-color--pink" d="M20,48c0-4.4,3.6-8,8-8s8,3.6,8,8v20c0,4.4-3.6,8-8,8s-8-3.6-8-8V48z"/>
		</g>
		<g>
			<path class="slack-color--aqua" d="M28,16c-4.4,0-8-3.6-8-8s3.6-8,8-8s8,3.6,8,8v8H28z"/>
			<path class="slack-color--aqua" d="M28,20c4.4,0,8,3.6,8,8c0,4.4-3.6,8-8,8H8c-4.4,0-8-3.6-8-8s3.6-8,8-8H28z"/>
		</g>
		<g>
			<path class="slack-color--green" d="M60,28c0-4.4,3.6-8,8-8s8,3.6,8,8c0,4.4-3.6,8-8,8h-8V28z"/>
			<path class="slack-color--green" d="M56,28c0,4.4-3.6,8-8,8s-8-3.6-8-8V8c0-4.4,3.6-8,8-8s8,3.6,8,8V28z"/>
		</g>
		<g>
			<path class="slack-color--gold" d="M48,60c4.4,0,8,3.6,8,8s-3.6,8-8,8s-8-3.6-8-8v-8H48z"/>
			<path class="slack-color--gold" d="M48,56c-4.4,0-8-3.6-8-8s3.6-8,8-8h20c4.4,0,8,3.6,8,8s-3.6,8-8,8H48z"/>
		</g>
	</g>
</g>
</svg>